<mxfile host="Electron" agent="Mozilla/5.0 (Windows NT 10.0; Win64; x64) AppleWebKit/537.36 (KHTML, like Gecko) draw.io/26.0.16 Chrome/132.0.6834.196 Electron/34.2.0 Safari/537.36" version="26.0.16">
  <diagram name="Сторінка-1" id="KAFWlHNbG4ezzqS_Tm6q">
    <mxGraphModel dx="915" dy="683" grid="0" gridSize="10" guides="1" tooltips="1" connect="1" arrows="1" fold="1" page="1" pageScale="1" pageWidth="1169" pageHeight="827" math="0" shadow="0">
      <root>
        <mxCell id="0" />
        <mxCell id="1" parent="0" />
        <mxCell id="Kc0o7BZu2yBqZyiRn3Rh-2" value="&lt;p style=&quot;margin:0px;margin-top:4px;text-align:center;&quot;&gt;&lt;i&gt;&amp;lt;&amp;lt;Interface&amp;gt;&amp;gt;&lt;b&gt;&amp;nbsp;&lt;/b&gt;&lt;/i&gt;&lt;/p&gt;&lt;p style=&quot;margin:0px;margin-top:4px;text-align:center;&quot;&gt;&lt;i&gt;&lt;b&gt;IBuilder&lt;/b&gt;&lt;/i&gt;&lt;/p&gt;&lt;hr size=&quot;1&quot; style=&quot;border-style:solid;&quot;&gt;&lt;p style=&quot;margin:0px;margin-left:4px;&quot;&gt;+ GetCharacter(): Character&lt;br&gt;+ WithHat(string): IBuilder&lt;/p&gt;&lt;p style=&quot;margin:0px;margin-left:4px;&quot;&gt;+ ...&lt;/p&gt;" style="verticalAlign=top;align=left;overflow=fill;html=1;whiteSpace=wrap;" vertex="1" parent="1">
          <mxGeometry x="616" y="279" width="190" height="140" as="geometry" />
        </mxCell>
        <mxCell id="Kc0o7BZu2yBqZyiRn3Rh-3" value="HeroBuilder" style="swimlane;fontStyle=1;align=center;verticalAlign=top;childLayout=stackLayout;horizontal=1;startSize=26;horizontalStack=0;resizeParent=1;resizeParentMax=0;resizeLast=0;collapsible=1;marginBottom=0;whiteSpace=wrap;html=1;" vertex="1" parent="1">
          <mxGeometry x="430" y="463" width="186" height="127" as="geometry">
            <mxRectangle x="224" y="585" width="101" height="26" as="alternateBounds" />
          </mxGeometry>
        </mxCell>
        <mxCell id="Kc0o7BZu2yBqZyiRn3Rh-4" value="+ character: Character" style="text;strokeColor=none;fillColor=none;align=left;verticalAlign=top;spacingLeft=4;spacingRight=4;overflow=hidden;rotatable=0;points=[[0,0.5],[1,0.5]];portConstraint=eastwest;whiteSpace=wrap;html=1;" vertex="1" parent="Kc0o7BZu2yBqZyiRn3Rh-3">
          <mxGeometry y="26" width="186" height="26" as="geometry" />
        </mxCell>
        <mxCell id="Kc0o7BZu2yBqZyiRn3Rh-5" value="" style="line;strokeWidth=1;fillColor=none;align=left;verticalAlign=middle;spacingTop=-1;spacingLeft=3;spacingRight=3;rotatable=0;labelPosition=right;points=[];portConstraint=eastwest;strokeColor=inherit;" vertex="1" parent="Kc0o7BZu2yBqZyiRn3Rh-3">
          <mxGeometry y="52" width="186" height="8" as="geometry" />
        </mxCell>
        <mxCell id="Kc0o7BZu2yBqZyiRn3Rh-6" value="+ GetCharacter(): Character&lt;div&gt;+ WithHat(string): IBuilder&lt;/div&gt;&lt;div&gt;...&lt;/div&gt;" style="text;strokeColor=none;fillColor=none;align=left;verticalAlign=top;spacingLeft=4;spacingRight=4;overflow=hidden;rotatable=0;points=[[0,0.5],[1,0.5]];portConstraint=eastwest;whiteSpace=wrap;html=1;" vertex="1" parent="Kc0o7BZu2yBqZyiRn3Rh-3">
          <mxGeometry y="60" width="186" height="67" as="geometry" />
        </mxCell>
        <mxCell id="Kc0o7BZu2yBqZyiRn3Rh-7" value="EnemyBuilder" style="swimlane;fontStyle=1;align=center;verticalAlign=top;childLayout=stackLayout;horizontal=1;startSize=26;horizontalStack=0;resizeParent=1;resizeParentMax=0;resizeLast=0;collapsible=1;marginBottom=0;whiteSpace=wrap;html=1;" vertex="1" parent="1">
          <mxGeometry x="806" y="467" width="186" height="119" as="geometry">
            <mxRectangle x="224" y="585" width="101" height="26" as="alternateBounds" />
          </mxGeometry>
        </mxCell>
        <mxCell id="Kc0o7BZu2yBqZyiRn3Rh-8" value="+ character: Character" style="text;strokeColor=none;fillColor=none;align=left;verticalAlign=top;spacingLeft=4;spacingRight=4;overflow=hidden;rotatable=0;points=[[0,0.5],[1,0.5]];portConstraint=eastwest;whiteSpace=wrap;html=1;" vertex="1" parent="Kc0o7BZu2yBqZyiRn3Rh-7">
          <mxGeometry y="26" width="186" height="26" as="geometry" />
        </mxCell>
        <mxCell id="Kc0o7BZu2yBqZyiRn3Rh-9" value="" style="line;strokeWidth=1;fillColor=none;align=left;verticalAlign=middle;spacingTop=-1;spacingLeft=3;spacingRight=3;rotatable=0;labelPosition=right;points=[];portConstraint=eastwest;strokeColor=inherit;" vertex="1" parent="Kc0o7BZu2yBqZyiRn3Rh-7">
          <mxGeometry y="52" width="186" height="8" as="geometry" />
        </mxCell>
        <mxCell id="Kc0o7BZu2yBqZyiRn3Rh-10" value="+ GetCharacter(): Character&lt;div&gt;+ WithHat(string): IBuilder&lt;/div&gt;&lt;div&gt;...&lt;/div&gt;" style="text;strokeColor=none;fillColor=none;align=left;verticalAlign=top;spacingLeft=4;spacingRight=4;overflow=hidden;rotatable=0;points=[[0,0.5],[1,0.5]];portConstraint=eastwest;whiteSpace=wrap;html=1;" vertex="1" parent="Kc0o7BZu2yBqZyiRn3Rh-7">
          <mxGeometry y="60" width="186" height="59" as="geometry" />
        </mxCell>
        <mxCell id="Kc0o7BZu2yBqZyiRn3Rh-11" value="" style="endArrow=block;dashed=1;endFill=0;endSize=12;html=1;rounded=0;" edge="1" parent="1" source="Kc0o7BZu2yBqZyiRn3Rh-3" target="Kc0o7BZu2yBqZyiRn3Rh-2">
          <mxGeometry width="160" relative="1" as="geometry">
            <mxPoint x="631" y="489" as="sourcePoint" />
            <mxPoint x="791" y="489" as="targetPoint" />
          </mxGeometry>
        </mxCell>
        <mxCell id="Kc0o7BZu2yBqZyiRn3Rh-12" value="" style="endArrow=block;dashed=1;endFill=0;endSize=12;html=1;rounded=0;" edge="1" parent="1" source="Kc0o7BZu2yBqZyiRn3Rh-7" target="Kc0o7BZu2yBqZyiRn3Rh-2">
          <mxGeometry width="160" relative="1" as="geometry">
            <mxPoint x="641" y="551" as="sourcePoint" />
            <mxPoint x="713" y="489" as="targetPoint" />
          </mxGeometry>
        </mxCell>
        <mxCell id="Kc0o7BZu2yBqZyiRn3Rh-13" value="Director" style="swimlane;fontStyle=0;childLayout=stackLayout;horizontal=1;startSize=26;fillColor=none;horizontalStack=0;resizeParent=1;resizeParentMax=0;resizeLast=0;collapsible=1;marginBottom=0;whiteSpace=wrap;html=1;" vertex="1" parent="1">
          <mxGeometry x="413" y="308" width="159" height="82" as="geometry" />
        </mxCell>
        <mxCell id="Kc0o7BZu2yBqZyiRn3Rh-14" value="+ CreateWizzard(builder)&lt;div&gt;+ CreateWarrior(builder)&lt;/div&gt;" style="text;strokeColor=none;fillColor=none;align=left;verticalAlign=top;spacingLeft=4;spacingRight=4;overflow=hidden;rotatable=0;points=[[0,0.5],[1,0.5]];portConstraint=eastwest;whiteSpace=wrap;html=1;" vertex="1" parent="Kc0o7BZu2yBqZyiRn3Rh-13">
          <mxGeometry y="26" width="159" height="56" as="geometry" />
        </mxCell>
        <mxCell id="Kc0o7BZu2yBqZyiRn3Rh-17" value="" style="endArrow=open;endFill=1;endSize=12;html=1;rounded=0;" edge="1" parent="1" source="Kc0o7BZu2yBqZyiRn3Rh-13" target="Kc0o7BZu2yBqZyiRn3Rh-2">
          <mxGeometry width="160" relative="1" as="geometry">
            <mxPoint x="492" y="415" as="sourcePoint" />
            <mxPoint x="652" y="415" as="targetPoint" />
          </mxGeometry>
        </mxCell>
        <mxCell id="Kc0o7BZu2yBqZyiRn3Rh-18" value="Character" style="html=1;whiteSpace=wrap;" vertex="1" parent="1">
          <mxGeometry x="656" y="501.5" width="110" height="50" as="geometry" />
        </mxCell>
        <mxCell id="Kc0o7BZu2yBqZyiRn3Rh-19" value="" style="endArrow=open;endFill=1;endSize=12;html=1;rounded=0;" edge="1" parent="1" source="Kc0o7BZu2yBqZyiRn3Rh-3" target="Kc0o7BZu2yBqZyiRn3Rh-18">
          <mxGeometry width="160" relative="1" as="geometry">
            <mxPoint x="678" y="619" as="sourcePoint" />
            <mxPoint x="838" y="619" as="targetPoint" />
          </mxGeometry>
        </mxCell>
        <mxCell id="Kc0o7BZu2yBqZyiRn3Rh-20" value="" style="endArrow=open;endFill=1;endSize=12;html=1;rounded=0;" edge="1" parent="1" source="Kc0o7BZu2yBqZyiRn3Rh-7" target="Kc0o7BZu2yBqZyiRn3Rh-18">
          <mxGeometry width="160" relative="1" as="geometry">
            <mxPoint x="678" y="569" as="sourcePoint" />
            <mxPoint x="795" y="663" as="targetPoint" />
          </mxGeometry>
        </mxCell>
        <mxCell id="Kc0o7BZu2yBqZyiRn3Rh-21" value="" style="endArrow=open;endFill=1;endSize=12;html=1;rounded=0;" edge="1" parent="1" source="Kc0o7BZu2yBqZyiRn3Rh-2" target="Kc0o7BZu2yBqZyiRn3Rh-18">
          <mxGeometry width="160" relative="1" as="geometry">
            <mxPoint x="676" y="555" as="sourcePoint" />
            <mxPoint x="793" y="649" as="targetPoint" />
          </mxGeometry>
        </mxCell>
      </root>
    </mxGraphModel>
  </diagram>
</mxfile>
